{"title":"Sta dixtya tou pepromenou ep 69 DVB-T by Ari Gr Subs","uid":12552865,"size":304172880,"categoryP":"video","categoryS":"tv_shows","magnet":"?xt=urn:btih:07c6e1bfac9595918620a9cb71dd66f65a28951f&amp;dn=Sta+dixtya+tou+pepromenou+ep+69+DVB-T+by+Ari+Gr+Subs&amp;tr=udp%3A%2F%2Ftracker.leechers-paradise.org%3A6969&amp;tr=udp%3A%2F%2Fzer0day.ch%3A1337&amp;tr=udp%3A%2F%2Fopen.demonii.com%3A1337&amp;tr=udp%3A%2F%2Ftracker.coppersurfer.tk%3A6969&amp;tr=udp%3A%2F%2Fexodus.desync.com%3A6969","seeders":0,"leechers":0,"uploader":"Aris2015","files":1,"time":1444586269,"description":"Î•Î Î•Î™Î£ÎŸÎ”Î™ÎŸ 69\r\n\r\nÎ— Î¿Î¹ÎºÎ¿Î³ÎµÎ½ÎµÎ¹Î±ÎºÎ® ÎµÏ€Î¹Ï‡ÎµÎ¯ÏÎ·ÏƒÎ· ÎºÏÎ­Î¼ÎµÏ„Î±Î¹ ÎºÏ…ÏÎ¹Î¿Î»ÎµÎºÏ„Î¹ÎºÎ¬ Î±Ï€ÏŒ Î¼Î¹Î± ÎºÎ»Ï‰ÏƒÏ„Î® ÎºÎ±Î¹ Î· Î¿Î¹ÎºÎ¿Î³Î­Î½ÎµÎ¹Î± ÎµÎ¯Î½Î±Î¹ Î¼Î¹Î± Î±Î½Î¬ÏƒÎ± Ï€ÏÎ¹Î½ Ï„Î·Î½ Î¿Î¹ÎºÎ¿Î½Î¿Î¼Î¹ÎºÎ® ÎºÎ±Ï„Î¬ÏÏÎµÏ…ÏƒÎ·. ÎŸ Î–Î¹Î³Î¹Î¬ ÎµÎ»Ï€Î¯Î¶ÎµÎ¹ ÏŒÏ„Î¹ Î¿ ÎšÎ±Ï‡ÏÎ±Î¼Î¬Î½ Î¸Î± Î²ÏÎµÎ¹ Î¼Î¹Î± Î»ÏÏƒÎ· Ï€Î¿Ï… Î¸Î± Ï„Î¿Ï…Ï‚ Î²Î³Î¬Î»ÎµÎ¹ Î±Ï€' Ï„Î¿ Î±Î´Î¹Î­Î¾Î¿Î´Î¿, ÎµÎºÎµÎ¯Î½Î¿Ï‚ ÏŒÎ¼Ï‰Ï‚ Î­Ï‡ÎµÎ¹ Î±Ï€Î¿ÏƒÏ…ÏÎ¸ÎµÎ¯ ÎºÎ±Î¹ Î¸ÏÎ·Î½ÎµÎ¯ Î³Î¹Î± Ï„Î¿Î½ Ï‡Î±Î¼ÏŒ Ï„Î·Ï‚ Î³Ï…Î½Î±Î¯ÎºÎ±Ï‚ Ï„Î¿Ï…. Î— Î•Î»Î¯Ï†, Î±Î¹Ï‡Î¼Î¬Î»Ï‰Ï„Î· Ï„Î¿Ï… ÎœÎ±ÎºÏƒÎ¿ÏÏ„, ÎµÏ„Î¿Î¹Î¼Î¬Î¶ÎµÎ¹ Ï„Î·Î½ Î±Ï€ÏŒÎ´ÏÎ±ÏƒÎ® Ï„Î·Ï‚.\r\n \nhttp://imgur.com/cC64xp9\r\n\r\nComplete name               : C:Userssta.dixtya.tou.pepromenou.ep.69.DVB-T.By.Ari.mp4\r\nFormat                      : MPEG-4\r\nFormat profile              : Base Media\r\nCodec ID                    : isom\r\nFile size                   : 290 MiB\r\nDuration                    : 56mn 41s\r\nOverall bit rate            : 715 Kbps\r\nWriting application         : Lavf54.59.106\r\n\r\nVideo\r\nID                          : 1\r\nFormat                      : AVC\r\nFormat/Info                 : Advanced Video Codec\r\nFormat profile              :   \r\nFormat settings, CABAC      : Yes\r\nFormat settings, ReFrames   : 4 frames\r\nCodec ID                    : avc1\r\nCodec ID/Info               : Advanced Video Coding\r\nDuration                    : 56mn 41s\r\nBit rate                    : 581 Kbps\r\nWidth                       : 640 pixels\r\nHeight                      : 352 pixels\r\nDisplay aspect ratio        : 16:9\r\nFrame rate mode             : Variable\r\nFrame rate                  : 25.000 fps\r\nMinimum frame rate          : 12.500 fps\r\nMaximum frame rate          : 25.000 fps\r\nColor space                 : YUV\r\nChroma subsampling          : 4:2:0\r\nBit depth                   : 8 bits\r\nScan type                   : Progressive\r\nBits/(Pixel*Frame)          : 0.103\r\nStream size                 : 236 MiB (81%)\r\nColor range                 : Limited\r\nColor primaries             : BT.601 NTSC\r\nTransfer characteristics    : BT.709\r\nMatrix coefficients         : BT.601\r\n\r\nAudio\r\nID                          : 2\r\nFormat                      : AAC\r\nFormat/Info                 : Advanced Audio Codec\r\nFormat profile              : LC\r\nCodec ID                    : 40\r\nDuration                    : 56mn 41s\r\nBit rate mode               : Constant\r\nBit rate                    : 128 Kbps\r\nChannel(s)                  : 2 channels\r\nChannel positions           : Front: L R\r\nSampling rate               : 48.0 KHz\r\nCompression mode            : Lossy\r\nStream size                 : 51.9 MiB (18%)","torrent":{"xt":"urn:btih:07c6e1bfac9595918620a9cb71dd66f65a28951f","amp;dn":"Sta+dixtya+tou+pepromenou+ep+69+DVB-T+by+Ari+Gr+Subs","amp;tr":["udp%3A%2F%2Ftracker.leechers-paradise.org%3A6969","udp%3A%2F%2Fzer0day.ch%3A1337","udp%3A%2F%2Fopen.demonii.com%3A1337","udp%3A%2F%2Ftracker.coppersurfer.tk%3A6969","udp%3A%2F%2Fexodus.desync.com%3A6969"],"infoHash":"07c6e1bfac9595918620a9cb71dd66f65a28951f","infoHashBuffer":{"type":"Buffer","data":[7,198,225,191,172,149,149,145,134,32,169,203,113,221,102,246,90,40,149,31]},"announce":[],"urlList":[]}}